<svg id="Pricing_Table_5" data-name="Pricing Table 5" xmlns="http://www.w3.org/2000/svg" width="66" height="66" viewBox="0 0 66 66">
  <defs>
    <style>
      .cls-1 {
        fill: #00bcd4;
        fill-rule: evenodd;
      }
    </style>
  </defs>
  <g id="Item">
    <g id="New">
      <path class="cls-1" d="M61.191,35.775L66,33l-4.809-2.777,4.174-3.661-5.258-1.786,3.38-4.4-5.506-.725,2.456-4.979-5.541.362,1.438-5.362L50.971,11.1l0.364-5.539L46.354,8.017,45.63,2.51,41.224,5.891,39.44,0.633,35.777,4.808,33,0l-2.776,4.81L26.562,0.633,24.777,5.891,20.372,2.51,19.647,8.017,14.666,5.56,15.03,11.1,9.666,9.664,11.1,15.028l-5.541-.363,2.456,4.981-5.506.724,3.38,4.406L0.634,26.56l4.174,3.662L0,33l4.809,2.777L0.633,39.438l5.259,1.785-3.381,4.4,5.506,0.726L5.56,51.333l5.541-.364L9.665,56.334,15.029,54.9l-0.363,5.541,4.981-2.456,0.725,5.506,4.406-3.38,1.784,5.258,3.662-4.174L33,66l2.778-4.808,3.661,4.175,1.786-5.259,4.4,3.38,0.725-5.506,4.98,2.456L50.971,54.9l5.364,1.438L54.9,50.969l5.54,0.366-2.456-4.982,5.505-.724-3.38-4.406,5.258-1.785Z"/>
    </g>
  </g>
</svg>
